<svg xmlns="http://www.w3.org/2000/svg" xmlns:xlink="http://www.w3.org/1999/xlink" viewBox="0 0 44.78 38.99"><defs><style>.cls-1{fill:none;}.cls-2{clip-path:url(#clip-path);}.cls-3{fill:#f89521;}.cls-4{fill:#231f20;}</style><clipPath id="clip-path" transform="translate(0 -11.01)"><rect class="cls-1" width="44.81" height="50"/></clipPath></defs><title>Asset 11</title><g id="Layer_2" data-name="Layer 2"><g id="Bag"><g id="Bag-2" data-name="Bag"><g id="Artwork_4" data-name="Artwork 4"><g class="cls-2"><g class="cls-2"><path class="cls-3" d="M41.09,50H3.72A3.72,3.72,0,0,1,0,46.28V14.74A3.73,3.73,0,0,1,3.72,11H41.06a3.73,3.73,0,0,1,3.72,3.73V46.28A3.68,3.68,0,0,1,41.09,50" transform="translate(0 -11.01)"/></g><g class="cls-2"><path class="cls-4" d="M10.65,21.94a8.54,8.54,0,0,0-6.6,3.18l-.27.3v11l.27.33A8.42,8.42,0,0,0,10.65,40a8.86,8.86,0,0,0,8.65-9,8.84,8.84,0,0,0-8.65-9m0,15.82a6.38,6.38,0,0,1-4.71-2.11V26.29a6.33,6.33,0,0,1,4.71-2.1,6.79,6.79,0,0,1,0,13.57" transform="translate(0 -11.01)"/></g><g class="cls-2"><path class="cls-4" d="M38.42,28.39a6.11,6.11,0,0,0-1.6-2.25v4h2a8.05,8.05,0,0,0-.45-1.77" transform="translate(0 -11.01)"/></g><g class="cls-2"><path class="cls-4" d="M26.41,30.16h2V26.11a6.44,6.44,0,0,0-1.59,2.28,5.69,5.69,0,0,0-.45,1.77" transform="translate(0 -11.01)"/></g><g class="cls-2"><path class="cls-4" d="M32.62,21.94A8.85,8.85,0,0,0,24,31a8.86,8.86,0,0,0,8.64,9,8.86,8.86,0,0,0,8.65-9,8.82,8.82,0,0,0-8.65-9M29.89,38.36a6.46,6.46,0,0,1-1.44-.78V31.63h-2a6.29,6.29,0,0,0,.45,1.83,6.93,6.93,0,0,0,1.23,1.95l-1,1A8.24,8.24,0,0,1,25,30.94a8,8,0,0,1,4.86-7.38Zm4.77.27a11.1,11.1,0,0,1-1.44.27V32.41l-.6,3-.6-3V38.9a7.63,7.63,0,0,1-1.44-.27V23.32A7.22,7.22,0,0,1,32,23.08l.6,6.33.57-6.33a5.82,5.82,0,0,1,1.44.27V38.63Zm3.49-2.2-1-1a5.85,5.85,0,0,0,1.24-1.95,6.6,6.6,0,0,0,.48-1.83H36.79v5.95a7.35,7.35,0,0,1-1.44.78V23.56a8,8,0,0,1,4.84,7.38,8.25,8.25,0,0,1-2,5.49" transform="translate(0 -11.01)"/></g><g class="cls-2"><polygon class="cls-4" points="21.1 17.23 23.35 10.92 22.84 10.92 21.1 17.23"/></g></g></g></g></g></g></svg>