<?xml version="1.0" encoding="iso-8859-1"?>
<!-- Generator: Adobe Illustrator 22.1.0, SVG Export Plug-In . SVG Version: 6.00 Build 0)  -->
<svg version="1.1" baseProfile="tiny" id="Layer_1" xmlns="http://www.w3.org/2000/svg" xmlns:xlink="http://www.w3.org/1999/xlink"
	 x="0px" y="0px" viewBox="0 0 992.126 425.197" xml:space="preserve">
<path d="M241.637,19.058c-56.683,0-110.239,24.807-146.943,68.071L89,93.839l-0.007,235.712l5.694,6.716
	c36.707,43.257,90.266,68.064,146.949,68.064c106.22,0,192.635-86.421,192.635-192.635
	C434.272,105.472,347.857,19.058,241.637,19.058z M241.691,356.376c-39.73,0-77.422-16.233-104.691-44.81l0.007-199.749
	c27.266-28.577,64.955-44.803,104.684-44.803c79.777,0,144.682,64.905,144.682,144.682
	C386.374,291.47,321.468,356.376,241.691,356.376z"/>
<g>
	<path d="M860.32,157.251c-7.679-18.283-24.701-40.177-35.32-48.088V195h45.301C868.642,180.931,865.171,169.018,860.32,157.251z"/>
	<path d="M592.328,195H638v-86.494c-9.191,6.385-28.033,30.216-35.691,48.64C597.331,169.183,593.867,180.931,592.328,195z"/>
	<path d="M731.32,19.058c-106.416,0-192.638,86.248-192.638,192.651c0,106.373,86.222,192.621,192.638,192.621
		c106.383,0,192.631-86.248,192.631-192.621C923.951,105.306,837.703,19.058,731.32,19.058z M670,369.056
		c-13.368-5.362-22.741-10.247-32-16.631V226h-45.842c1.279,13.564,4.876,26.612,10.258,39.261
		c6.575,15.49,16.053,29.307,27.637,41.584l-21.722,20.852c-29.143-31.059-46.741-71.993-46.741-116.574
		c0-65.615,43.656-135.584,108.409-157.352V369.056z M776,374.744c-10.226,2.842-21.104,4.768-32,5.538V242.608l-12.993,63.453
		L718,242.608v137.91c-11.003-0.769-21.741-3.065-32-5.879V48.299c10.251-2.685,20.847-4.761,31.742-5.365l13.275,134.725
		l12.784-134.725c10.888,0.604,21.988,2.679,32.199,5.471V374.744z M854.318,327.844l-22.546-21.237
		c11.419-12.145,21.125-25.856,27.652-41.346c5.398-12.649,9.355-25.697,10.769-39.261H825v126.425
		c-9.215,6.105-20.986,12.383-32,16.485V53.494c62.859,24.475,107.924,88.06,107.924,157.63
		C900.924,253.634,884.274,295.603,854.318,327.844z"/>
</g>
<polygon points="474.636,153.847 524.606,19 513.121,19 "/>
</svg>
