<svg xmlns="http://www.w3.org/2000/svg" viewBox="0 0 50.25 50.25"><defs><style>.cls-1{fill:#fff;stroke:gray;stroke-miterlimit:10;stroke-width:0.25px;}</style></defs><title>steel-icon</title><g id="Layer_2" data-name="Layer 2"><g id="Section_C" data-name="Section C"><circle class="cls-1" cx="25.13" cy="14.13" r="3"/><circle class="cls-1" cx="18.13" cy="27.13" r="3"/><circle class="cls-1" cx="25.13" cy="24.13" r="3"/><circle class="cls-1" cx="21.13" cy="21.13" r="3"/><circle class="cls-1" cx="30.13" cy="24.13" r="3"/><circle class="cls-1" cx="21.13" cy="17.13" r="3"/><circle class="cls-1" cx="35.13" cy="8.13" r="3"/><circle class="cls-1" cx="46.13" cy="16.13" r="3"/><circle class="cls-1" cx="40.13" cy="24.13" r="3"/><circle class="cls-1" cx="45.13" cy="22.13" r="3"/><circle class="cls-1" cx="40.13" cy="19.13" r="3"/><circle class="cls-1" cx="35.13" cy="19.13" r="3"/><circle class="cls-1" cx="35.13" cy="15.13" r="3"/><circle class="cls-1" cx="31.13" cy="8.13" r="3"/><circle class="cls-1" cx="31.13" cy="3.13" r="3"/><circle class="cls-1" cx="28.13" cy="8.13" r="3"/><circle class="cls-1" cx="31.13" cy="14.13" r="3"/><circle class="cls-1" cx="26.13" cy="17.13" r="3"/><circle class="cls-1" cx="31.13" cy="20.13" r="3"/><circle class="cls-1" cx="15.13" cy="32.13" r="3"/><circle class="cls-1" cx="3.13" cy="34.13" r="3"/><circle class="cls-1" cx="32.13" cy="24.13" r="3"/><circle class="cls-1" cx="23.13" cy="29.13" r="3"/><circle class="cls-1" cx="16.13" cy="21.13" r="3"/><circle class="cls-1" cx="12.13" cy="26.13" r="3"/><circle class="cls-1" cx="12.13" cy="22.13" r="3"/><circle class="cls-1" cx="10.13" cy="18.13" r="3"/><circle class="cls-1" cx="33.13" cy="32.13" r="3"/><circle class="cls-1" cx="15.13" cy="19.13" r="3"/><circle class="cls-1" cx="8.13" cy="27.13" r="3"/><circle class="cls-1" cx="6.13" cy="47.13" r="3"/><circle class="cls-1" cx="28.13" cy="35.13" r="3"/><circle class="cls-1" cx="9.13" cy="33.13" r="3"/><circle class="cls-1" cx="23.13" cy="11.13" r="3"/><circle class="cls-1" cx="25.13" cy="3.13" r="3"/><circle class="cls-1" cx="46.13" cy="27.13" r="3"/><circle class="cls-1" cx="35.13" cy="26.13" r="3"/><circle class="cls-1" cx="29.13" cy="28.13" r="3"/><circle class="cls-1" cx="16.13" cy="13.13" r="3"/><circle class="cls-1" cx="3.13" cy="26.13" r="3"/><circle class="cls-1" cx="7.13" cy="23.13" r="3"/><circle class="cls-1" cx="3.13" cy="29.13" r="3"/><circle class="cls-1" cx="3.13" cy="45.13" r="3"/><circle class="cls-1" cx="3.13" cy="39.13" r="3"/><circle class="cls-1" cx="24.13" cy="41.13" r="3"/><circle class="cls-1" cx="22.13" cy="34.13" r="3"/><circle class="cls-1" cx="12.13" cy="47.13" r="3"/><circle class="cls-1" cx="47.13" cy="37.13" r="3"/><circle class="cls-1" cx="47.13" cy="47.13" r="3"/><circle class="cls-1" cx="47.13" cy="41.13" r="3"/><circle class="cls-1" cx="47.13" cy="32.13" r="3"/><circle class="cls-1" cx="37.13" cy="47.13" r="3"/><circle class="cls-1" cx="32.13" cy="47.13" r="3"/><circle class="cls-1" cx="27.13" cy="47.13" r="3"/><circle class="cls-1" cx="22.13" cy="47.13" r="3"/><circle class="cls-1" cx="17.13" cy="47.13" r="3"/><circle class="cls-1" cx="10.13" cy="35.13" r="3"/><circle class="cls-1" cx="3.13" cy="47.13" r="3"/><circle class="cls-1" cx="42.13" cy="47.13" r="3"/><circle class="cls-1" cx="35.13" cy="39.13" r="3"/><circle class="cls-1" cx="42.13" cy="32.13" r="3"/><circle class="cls-1" cx="39.13" cy="28.13" r="3"/><circle class="cls-1" cx="14.13" cy="36.13" r="3"/><circle class="cls-1" cx="38.13" cy="28.13" r="3"/><circle class="cls-1" cx="36.13" cy="29.13" r="3"/><circle class="cls-1" cx="30.13" cy="36.13" r="3"/><circle class="cls-1" cx="12.13" cy="43.13" r="3"/><circle class="cls-1" cx="29.13" cy="40.13" r="3"/><circle class="cls-1" cx="7.13" cy="41.13" r="3"/><circle class="cls-1" cx="21.13" cy="36.13" r="3"/><circle class="cls-1" cx="35.13" cy="40.13" r="3"/><circle class="cls-1" cx="41.13" cy="42.13" r="3"/><circle class="cls-1" cx="37.13" cy="33.13" r="3"/><circle class="cls-1" cx="34.13" cy="35.13" r="3"/><circle class="cls-1" cx="17.13" cy="39.13" r="3"/><circle class="cls-1" cx="41.13" cy="37.13" r="3"/></g></g></svg>